<?xml version="1.0" encoding="UTF-8"?>
<svg id="Layer_1" data-name="Layer 1" xmlns="http://www.w3.org/2000/svg" viewBox="0 0 953.11 233.45">
  <defs>
    <style>
      .cls-1 {
        fill: transparent;
        stroke: #40F99B;
        stroke-miterlimit: 10;
        stroke-width: 18px;
      }
    </style>
  </defs>
  <path class="cls-1" d="M927.15,11.5c-41.02-3.88-107.53-5.04-184.83,17.3-83.98,24.27-143.05,65.41-175.96,92.21"/>
  <path class="cls-1" d="M950.21,202.24c-39.01-13.26-103.45-29.77-183.83-25.92-87.32,4.19-154.3,30.55-192.52,49.02"/>
  <path class="cls-1" d="M25.96,11.21c41.02-3.88,107.53-5.04,184.83,17.3,83.98,24.27,143.05,65.41,175.96,92.21"/>
  <path class="cls-1" d="M2.9,201.95c39.01-13.26,103.45-29.77,183.83-25.92,87.32,4.19,154.3,30.55,192.52,49.02"/>
  <path class="cls-1" d="M480.17,150.08c-28.65-10.5-38.02-7.1-41.49-2.96-10.7,12.77,17.36,53.18,35.06,76.47"/>
  <path class="cls-1" d="M479.52,151.24c27.94-12.26,37.5-9.45,41.23-5.53,11.47,12.08-14.02,54.16-30.23,78.5"/>
</svg>